<svg width="32" height="31" viewBox="0 0 32 31" fill="none" xmlns="http://www.w3.org/2000/svg">
<path d="M6.71564 3.3595C6.71519 4.25005 6.36099 5.10394 5.73097 5.73334C5.10094 6.36274 4.24669 6.71608 3.35614 6.71564C2.46559 6.71519 1.61169 6.36099 0.982295 5.73097C0.352897 5.10094 -0.000444854 4.24669 4.20334e-07 3.35614C0.000445695 2.46559 0.354642 1.61169 0.984669 0.982295C1.6147 0.352897 2.46895 -0.000444854 3.3595 4.20334e-07C4.25005 0.000445695 5.10394 0.354642 5.73334 0.984669C6.36274 1.6147 6.71608 2.46895 6.71564 3.3595ZM6.81637 9.2021H0.100735V30.222H6.81637V9.2021ZM17.4271 9.2021H10.745V30.222H17.3599V19.1916C17.3599 13.0468 25.3683 12.476 25.3683 19.1916V30.222H32V16.9083C32 6.54942 20.1469 6.93557 17.3599 12.0227L17.4271 9.2021Z" fill="#4122FD"/>
</svg>
